<svg version="1" xmlns="http://www.w3.org/2000/svg" width="346.667" height="346.667" viewBox="0 0 260.000000 260.000000"><path d="M0 130v130h260V0H0v130zm203.1-57c5.3 1.8 13.9 6.5 13.9 7.7 0 1.3-6.2 12.4-6.8 12.1-.4-.2-3.6-1.8-7.2-3.7-18.2-9.5-40.2-2.1-49 16.7-6.7 14.1-6.6 36.2.2 49.5 2.9 5.7 10 12.9 15.3 15.6 10.3 5.2 24.8 4.9 33.4-.7l4.1-2.6V141h-16v-14.1l15.8.3 15.7.3.3 24.7.2 24.7-3.9 2.6c-5.7 3.8-17.2 7.5-27.2 8.8-24.3 3-43.2-6.5-52.9-26.7-5-10.5-6.4-17.5-6.4-31.6 0-19.4 4.9-32.7 16.3-44.1 10.7-10.6 21.1-14.7 38.4-14.8 7.3-.1 11.3.4 15.8 1.9zM71 112.3l28.5 39.2.3-39.3.2-39.2h14v116.1l-2.2-.3c-1.6-.2-9.9-11.3-31.2-41.4l-29.1-41.2-.3 40.4L51 187H36V73h3.3c3.1 0 4.3 1.6 31.7 39.3z"/></svg>